<?xml version="1.0" encoding="UTF-8"?>
<!DOCTYPE svg PUBLIC "-//W3C//DTD SVG 1.1//EN" "http://www.w3.org/Graphics/SVG/1.1/DTD/svg11.dtd">
<svg xmlns="http://www.w3.org/2000/svg" version="1.1" width="128px" height="128px" style="shape-rendering:geometricPrecision; text-rendering:geometricPrecision; image-rendering:optimizeQuality; fill-rule:evenodd; clip-rule:evenodd" xmlns:xlink="http://www.w3.org/1999/xlink">
<g><path style="opacity:0.969" fill="#ffbf20" d="M 86.5,20.5 C 79.3411,21.1664 72.0078,21.4997 64.5,21.5C 56.8016,21.4974 49.4682,20.8307 42.5,19.5C 57.3122,13.9075 71.9788,14.2409 86.5,20.5 Z"/></g>
<g><path style="opacity:0.983" fill="#ffb31e" d="M 42.5,19.5 C 49.4682,20.8307 56.8016,21.4974 64.5,21.5C 72.0078,21.4997 79.3411,21.1664 86.5,20.5C 89.4735,22.1468 92.1401,24.1468 94.5,26.5C 73.6733,27.4973 52.6733,27.8306 31.5,27.5C 34.5971,24.1116 38.2637,21.4449 42.5,19.5 Z"/></g>
<g><path style="opacity:0.977" fill="#ffa51d" d="M 94.5,26.5 C 98.2119,29.2109 101.212,32.5442 103.5,36.5C 94.3178,36.1734 85.3178,36.5067 76.5,37.5C 67.8023,29.5682 59.1356,29.5682 50.5,37.5C 41.8333,36.8333 33.1667,36.1667 24.5,35.5C 26.0941,32.2358 28.4275,29.5691 31.5,27.5C 52.6733,27.8306 73.6733,27.4973 94.5,26.5 Z"/></g>
<g><path style="opacity:1" fill="#fffdfb" d="M 76.5,37.5 C 78.0598,39.9535 79.0598,42.6202 79.5,45.5C 79.5,47.5 79.5,49.5 79.5,51.5C 79.8624,56.0993 78.529,60.0993 75.5,63.5C 65.8047,70.9785 57.138,69.9785 49.5,60.5C 47.8572,56.7047 47.1906,52.7047 47.5,48.5C 47.5,46.8333 47.5,45.1667 47.5,43.5C 49.0075,41.8185 50.0075,39.8185 50.5,37.5C 59.1356,29.5682 67.8023,29.5682 76.5,37.5 Z"/></g>
<g><path style="opacity:0.989" fill="#ff941a" d="M 24.5,35.5 C 33.1667,36.1667 41.8333,36.8333 50.5,37.5C 50.0075,39.8185 49.0075,41.8185 47.5,43.5C 38.3483,42.5064 29.015,42.1731 19.5,42.5C 20.8109,39.8646 22.4776,37.5313 24.5,35.5 Z"/></g>
<g><path style="opacity:0.998" fill="#ff9219" d="M 103.5,36.5 C 105.653,38.7937 107.32,41.4604 108.5,44.5C 98.9162,45.4732 89.2496,45.8065 79.5,45.5C 79.0598,42.6202 78.0598,39.9535 76.5,37.5C 85.3178,36.5067 94.3178,36.1734 103.5,36.5 Z"/></g>
<g><path style="opacity:0.996" fill="#ff8817" d="M 19.5,42.5 C 29.015,42.1731 38.3483,42.5064 47.5,43.5C 47.5,45.1667 47.5,46.8333 47.5,48.5C 37.4422,49.14 27.7755,48.4733 18.5,46.5C 18.4326,45.0413 18.7659,43.7079 19.5,42.5 Z"/></g>
<g><path style="opacity:0.99" fill="#ff8115" d="M 108.5,44.5 C 108.971,46.5786 109.637,48.5786 110.5,50.5C 100.249,51.475 89.9154,51.8083 79.5,51.5C 79.5,49.5 79.5,47.5 79.5,45.5C 89.2496,45.8065 98.9162,45.4732 108.5,44.5 Z"/></g>
<g><path style="opacity:0.991" fill="#ff7313" d="M 18.5,46.5 C 27.7755,48.4733 37.4422,49.14 47.5,48.5C 47.1906,52.7047 47.8572,56.7047 49.5,60.5C 38.1667,60.5 26.8333,60.5 15.5,60.5C 15.2651,55.4541 16.2651,50.7874 18.5,46.5 Z"/></g>
<g><path style="opacity:0.998" fill="#ff6d13" d="M 110.5,50.5 C 111.295,54.7853 111.628,59.1186 111.5,63.5C 99.5,63.5 87.5,63.5 75.5,63.5C 78.529,60.0993 79.8624,56.0993 79.5,51.5C 89.9154,51.8083 100.249,51.475 110.5,50.5 Z"/></g>
<g><path style="opacity:0.993" fill="#ff5e13" d="M 15.5,60.5 C 26.8333,60.5 38.1667,60.5 49.5,60.5C 57.138,69.9785 65.8047,70.9785 75.5,63.5C 87.5,63.5 99.5,63.5 111.5,63.5C 111.5,65.5 111.5,67.5 111.5,69.5C 79.5,69.5 47.5,69.5 15.5,69.5C 15.5,66.5 15.5,63.5 15.5,60.5 Z"/></g>
<g><path style="opacity:0.991" fill="#ff5310" d="M 15.5,69.5 C 47.5,69.5 79.5,69.5 111.5,69.5C 111.483,71.5648 111.15,73.5648 110.5,75.5C 102.648,75.1746 94.9818,75.508 87.5,76.5C 80.2145,72.0362 72.2145,70.3695 63.5,71.5C 58.5,71.6667 53.5,71.8333 48.5,72C 45.1943,72.9862 42.1943,74.4862 39.5,76.5C 36.0159,75.8346 32.3492,75.5013 28.5,75.5C 24.4348,75.5112 20.7681,76.1778 17.5,77.5C 16.2318,75.0948 15.5651,72.4282 15.5,69.5 Z"/></g>
<g><path style="opacity:1" fill="#fffbfa" d="M 87.5,76.5 C 94.3414,82.1922 97.3414,89.5255 96.5,98.5C 87.4764,107.5 76.4764,111.834 63.5,111.5C 50.5236,111.834 39.5236,107.5 30.5,98.5C 29.6586,89.5255 32.6586,82.1922 39.5,76.5C 42.1943,74.4862 45.1943,72.9862 48.5,72C 53.5,71.8333 58.5,71.6667 63.5,71.5C 72.2145,70.3695 80.2145,72.0362 87.5,76.5 Z"/></g>
<g><path style="opacity:0.991" fill="#ff3f0e" d="M 39.5,76.5 C 32.6586,82.1922 29.6586,89.5255 30.5,98.5C 23.8844,92.9398 19.551,85.9398 17.5,77.5C 20.7681,76.1778 24.4348,75.5112 28.5,75.5C 32.3492,75.5013 36.0159,75.8346 39.5,76.5 Z"/></g>
<g><path style="opacity:0.979" fill="#ff3f0e" d="M 87.5,76.5 C 94.9818,75.508 102.648,75.1746 110.5,75.5C 108.271,84.7126 103.604,92.3792 96.5,98.5C 97.3414,89.5255 94.3414,82.1922 87.5,76.5 Z"/></g>
</svg>
